HIERARCHY
ROOT joint_Root
{
	OFFSET 0.0 0.0 0.0
	CHANNELS 6 Xposition Yposition Zposition Zrotation Xrotation Yrotation 
	JOINT Hips
	{
		OFFSET 4.5925 91.4895 -427.239
		CHANNELS 6 Xposition Yposition Zposition Zrotation Xrotation Yrotation 
		JOINT Spine
		{
			OFFSET 15.7357 0.0 0.0
			CHANNELS 6 Xposition Yposition Zposition Zrotation Xrotation Yrotation 
			JOINT Chest
			{
				OFFSET 8.98455 -0.406207 0.0
				CHANNELS 6 Xposition Yposition Zposition Zrotation Xrotation Yrotation 
				JOINT Neck
				{
					OFFSET 16.3773 0.0 0.0
					CHANNELS 6 Xposition Yposition Zposition Zrotation Xrotation Yrotation 
					JOINT Head
					{
						OFFSET 6.45672 0.0 0.0
						CHANNELS 6 Xposition Yposition Zposition Zrotation Xrotation Yrotation 
						End Site
						{
							OFFSET 0.0 0.0 0.0
						}
					}
				}
				JOINT Shoulder_L
				{
					OFFSET 12.9942 -0.242716 4.98039
					CHANNELS 6 Xposition Yposition Zposition Zrotation Xrotation Yrotation 
					JOINT UpperArm_L
					{
						OFFSET 5.34809 0.0 0.0
						CHANNELS 6 Xposition Yposition Zposition Zrotation Xrotation Yrotation 
						JOINT LowerArm_L
						{
							OFFSET 24.3286 1.87007e-05 0.0
							CHANNELS 6 Xposition Yposition Zposition Zrotation Xrotation Yrotation 
							JOINT Hand_L
							{
								OFFSET 22.2916 0.0 0.0
								CHANNELS 6 Xposition Yposition Zposition Zrotation Xrotation Yrotation 
								End Site
								{
									OFFSET 0.0 0.0 0.0
								}
							}
						}
					}
				}
				JOINT Shoulder_R
				{
					OFFSET 12.9945 -0.242716 -4.98039
					CHANNELS 6 Xposition Yposition Zposition Zrotation Xrotation Yrotation 
					JOINT UpperArm_R
					{
						OFFSET -5.34813 0.0 0.0
						CHANNELS 6 Xposition Yposition Zposition Zrotation Xrotation Yrotation 
						JOINT LowerArm_R
						{
							OFFSET -24.3289 0.000322201 0.0
							CHANNELS 6 Xposition Yposition Zposition Zrotation Xrotation Yrotation 
							JOINT Hand_R
							{
								OFFSET -22.2915 -0.000108084 0.0
								CHANNELS 6 Xposition Yposition Zposition Zrotation Xrotation Yrotation 
								End Site
								{
									OFFSET 0.0 0.0 0.0
								}
							}
						}
					}
				}
			}
		}
		JOINT UpperLeg_L
		{
			OFFSET -2.19248 -6.46944 0.0
			CHANNELS 6 Xposition Yposition Zposition Zrotation Xrotation Yrotation 
			JOINT LowerLeg_L
			{
				OFFSET 39.0811 0.0 -1.23785e-05
				CHANNELS 6 Xposition Yposition Zposition Zrotation Xrotation Yrotation 
				JOINT Foot_L
				{
					OFFSET 40.9854 0.0 -1.26872e-05
					CHANNELS 6 Xposition Yposition Zposition Zrotation Xrotation Yrotation 
					JOINT Toes_L
					{
						OFFSET 11.7543 0.0 0.0
						CHANNELS 6 Xposition Yposition Zposition Zrotation Xrotation Yrotation 
						End Site
						{
							OFFSET 0.0 0.0 0.0
						}
					}
				}
			}
		}
		JOINT UpperLeg_R
		{
			OFFSET -2.19251 6.46944 0.0
			CHANNELS 6 Xposition Yposition Zposition Zrotation Xrotation Yrotation 
			JOINT LowerLeg_R
			{
				OFFSET -39.0811 -0.00228153 -0.0401928
				CHANNELS 6 Xposition Yposition Zposition Zrotation Xrotation Yrotation 
				JOINT Foot_R
				{
					OFFSET -40.9854 0.0 0.0
					CHANNELS 6 Xposition Yposition Zposition Zrotation Xrotation Yrotation 
					JOINT Toes_R
					{
						OFFSET -11.7543 0.0 0.0
						CHANNELS 6 Xposition Yposition Zposition Zrotation Xrotation Yrotation 
						End Site
						{
							OFFSET 0.0 0.0 0.0
						}
					}
				}
			}
		}
	}
}
MOTION
Frames:	8
Frame Time:	0.0333333
0.000000 0.000000 0.000000 0.000000 0.000000 -0.000000 -3.719270 82.827600 -0.877458 87.213300 -3.057510 10.210000 15.735700 0.000005 -0.000001 78.757400 80.945600 -77.880500 8.984550 -0.406207 -0.000000 10.036400 -3.490900 2.059500 16.377300 -0.000001 -0.000001 -1.883470 -2.698730 1.259720 6.456720 -0.000001 -0.000000 -7.400290 1.773820 -4.583240 12.994200 -0.242716 4.980390 -90.968400 3.510970 -74.569800 5.348090 -0.000007 -0.000001 -60.836800 37.514000 -19.023700 24.328600 0.000019 0.000005 9.237860 18.461200 -27.187100 22.291600 -0.000001 0.000005 13.904100 5.225230 2.078600 12.994500 -0.242716 -4.980390 87.835100 10.089700 -77.823500 -5.348130 -0.000001 -0.000004 -59.426300 19.895000 -14.822700 -24.328900 0.000322 -0.000009 -3.226770 -6.855180 -25.270900 -22.291500 -0.000108 -0.000004 14.101400 5.345220 -1.209680 -2.192480 -6.469440 -0.000000 -169.443000 -11.903500 -14.672900 39.081100 -0.000007 -0.000012 -0.391246 0.220627 60.581900 40.985400 -0.000006 -0.000013 -0.436775 6.834720 -84.833900 11.754300 -0.000000 0.000003 -0.000130 -0.001288 -16.626700 -2.192510 6.469440 -0.000001 -178.419000 13.231700 165.409000 -39.081100 -0.002282 -0.040193 0.085121 -0.047733 59.771600 -40.985400 0.000008 0.000006 9.001570 1.959040 -85.246000 -11.754300 -0.000006 -0.000006 -0.144109 -0.180918 -16.931600
0.000000 0.000000 0.000000 0.000000 0.000000 -0.000000 -4.446020 84.550200 0.003967 87.255300 -0.897868 9.858610 15.735700 0.000005 -0.000001 78.045400 81.952400 -78.220200 8.984550 -0.406207 -0.000000 7.985180 -3.320030 -0.117544 16.377300 -0.000001 -0.000001 -0.521210 -2.892740 1.012980 6.456720 -0.000001 -0.000000 -5.527530 0.434897 -3.044370 12.994200 -0.242716 4.980390 -91.013400 3.446540 -73.604400 5.348090 -0.000007 -0.000001 -62.331300 35.655600 -17.732900 24.328600 0.000019 0.000005 9.204810 20.239400 -25.099700 22.291600 -0.000001 0.000005 13.477600 5.129150 4.438080 12.994500 -0.242716 -4.980390 87.970600 9.167350 -77.460700 -5.348130 -0.000001 -0.000004 -58.625000 18.953700 -14.037800 -24.328900 0.000322 -0.000009 -0.925682 -2.341310 -21.541600 -22.291500 -0.000108 -0.000004 4.992390 5.306250 -0.100293 -2.192480 -6.469440 -0.000000 -169.280000 -10.494700 -12.211300 39.081100 -0.000007 -0.000012 -0.360535 0.250870 55.169700 40.985400 -0.000006 -0.000013 -0.862118 7.714160 -82.461900 11.754300 -0.000000 0.000003 -0.000098 -0.001014 -16.616500 -2.192510 6.469440 -0.000001 -178.364000 15.015600 168.484000 -39.081100 -0.002282 -0.040193 0.082806 -0.056907 54.430400 -40.985400 0.000008 0.000006 9.102440 1.928660 -83.089800 -11.754300 -0.000006 -0.000006 -0.248748 -0.310884 -17.230100
0.000000 0.000000 0.000000 0.000000 0.000000 -0.000000 -4.930570 86.940400 1.030460 87.800000 0.407764 8.821930 15.735700 0.000005 -0.000001 77.392000 83.406900 -78.900500 8.984550 -0.406207 -0.000000 5.071490 -2.836860 -2.888330 16.377300 -0.000001 -0.000001 1.826920 -3.020810 0.946090 6.456720 -0.000001 -0.000000 -3.552910 -0.801529 -1.706710 12.994200 -0.242716 4.980390 -90.932700 2.920520 -72.278500 5.348090 -0.000007 -0.000001 -64.638100 32.937800 -13.940200 24.328600 0.000019 0.000005 8.680090 18.956300 -25.171900 22.291600 -0.000001 0.000005 12.168500 5.145530 4.046420 12.994500 -0.242716 -4.980390 88.301700 7.256290 -76.789200 -5.348130 -0.000001 -0.000004 -53.946000 14.998400 -16.315700 -24.328900 0.000322 -0.000009 -0.310500 -0.888156 -19.214100 -22.291500 -0.000108 -0.000004 -2.713250 5.242170 1.647910 -2.192480 -6.469440 -0.000000 -169.937000 -9.618990 -8.618110 39.081100 -0.000007 -0.000012 -0.296129 0.279324 46.673400 40.985400 -0.000006 -0.000013 -1.579260 7.916740 -78.718700 11.754300 -0.000000 0.000003 -0.000055 -0.000612 -16.601300 -2.192510 6.469440 -0.000001 -178.795000 16.228400 172.070000 -39.081100 -0.002282 -0.040193 0.069264 -0.062516 46.554900 -40.985400 0.000008 0.000006 8.989000 2.733540 -79.357900 -11.754300 -0.000006 -0.000006 -0.451399 -0.556795 -17.698700
0.000000 0.000000 0.000000 0.000000 0.000000 -0.000000 -5.006190 89.032300 1.798280 88.497100 0.934170 7.197660 15.735700 0.000005 -0.000001 75.603300 84.948200 -78.281900 8.984550 -0.406207 -0.000000 1.972110 -2.375150 -5.311690 16.377300 -0.000001 -0.000001 4.123840 -2.993690 0.639127 6.456720 -0.000001 -0.000000 -1.673670 -1.560430 -1.031140 12.994200 -0.242716 4.980390 -90.682200 1.949250 -70.706300 5.348090 -0.000007 -0.000001 -66.968800 29.673800 -9.061920 24.328600 0.000019 0.000005 8.703960 17.166200 -27.416300 22.291600 -0.000001 0.000005 9.480830 5.217200 2.279950 12.994500 -0.242716 -4.980390 88.809000 4.924890 -76.386700 -5.348130 -0.000001 -0.000004 -46.617700 4.099870 -21.505500 -24.328900 0.000322 -0.000009 -1.204250 -3.517670 -18.896300 -22.291500 -0.000108 -0.000004 -1.090580 5.193740 2.884420 -2.192480 -6.469440 -0.000000 -171.075000 -9.406610 -5.468410 39.081100 -0.000007 -0.000012 -0.230639 0.296506 37.878200 40.985400 -0.000006 -0.000013 -2.161600 7.593550 -74.733900 11.754300 -0.000000 0.000003 -0.000028 -0.000345 -16.591000 -2.192510 6.469440 -0.000001 -179.546000 17.448700 174.672000 -39.081100 -0.002282 -0.040193 0.054245 -0.062949 38.993500 -40.985400 0.000008 0.000006 8.811240 4.546620 -75.234300 -11.754300 -0.000006 -0.000006 -0.694331 -0.843348 -18.453600
0.000000 0.000000 0.000000 0.000000 0.000000 -0.000000 -5.005400 90.284700 2.099880 88.419900 1.172380 5.350530 15.735700 0.000005 -0.000001 73.363600 86.084100 -76.444700 8.984550 -0.406207 -0.000000 -0.308764 -2.024770 -6.164410 16.377300 -0.000001 -0.000001 5.033660 -2.975840 -0.315657 6.456720 -0.000001 -0.000000 -0.750789 -2.173950 -1.183480 12.994200 -0.242716 4.980390 -90.629000 1.685390 -69.531000 5.348090 -0.000007 -0.000001 -68.043800 26.640800 -5.231150 24.328600 0.000019 0.000005 8.419120 14.896000 -29.932100 22.291600 -0.000001 0.000005 7.084450 5.257810 1.224850 12.994500 -0.242716 -4.980390 89.324700 2.866930 -76.743800 -5.348130 -0.000001 -0.000004 -35.985900 -10.616000 -28.512400 -24.328900 0.000322 -0.000009 -2.771400 -7.547780 -20.218500 -22.291500 -0.000108 -0.000004 6.565540 5.294700 0.255401 -2.192480 -6.469440 -0.000000 -171.345000 -9.837240 -4.227950 39.081100 -0.000007 -0.000012 -0.193548 0.310628 31.926700 40.985400 -0.000006 -0.000013 -2.427340 7.666210 -71.865100 11.754300 -0.000000 0.000003 -0.000016 -0.000203 -16.585500 -2.192510 6.469440 -0.000001 -179.425000 19.118700 175.605000 -39.081100 -0.002282 -0.040193 0.042427 -0.058755 33.665400 -40.985400 0.000008 0.000006 8.654970 6.804670 -72.148200 -11.754300 -0.000006 -0.000006 -0.870284 -1.043090 -19.052000
0.000000 0.000000 0.000000 0.000000 0.000000 -0.000000 -4.947510 90.771300 2.249910 88.324700 1.391510 4.313940 15.735700 0.000005 -0.000001 77.062200 86.597900 -80.204600 8.984550 -0.406207 -0.000000 -1.161800 -1.278500 -6.295340 16.377300 -0.000001 -0.000001 4.759770 -3.063860 -1.169450 6.456720 -0.000001 -0.000000 -1.024590 -2.685030 -2.026960 12.994200 -0.242716 4.980390 -90.856300 2.199920 -68.726400 5.348090 -0.000007 -0.000001 -67.087300 25.371500 -3.480010 24.328600 0.000019 0.000005 8.013920 13.259600 -31.542500 22.291600 -0.000001 0.000005 6.858490 5.265030 1.032040 12.994500 -0.242716 -4.980390 90.141700 -0.653623 -77.759200 -5.348130 -0.000001 -0.000004 -26.732000 -29.213800 -32.278700 -24.328900 0.000322 -0.000009 -5.714450 -11.815300 -26.035100 -22.291500 -0.000108 -0.000004 15.999300 5.432170 -3.977950 -2.192480 -6.469440 -0.000000 -171.431000 -10.176600 -3.950480 39.081100 -0.000007 -0.000012 -0.184410 0.327826 29.359100 40.985400 -0.000006 -0.000013 -2.458950 7.940540 -70.618200 11.754300 -0.000000 0.000003 -0.000017 -0.000217 -16.586100 -2.192510 6.469440 -0.000001 -179.518000 20.985000 176.407000 -39.081100 -0.002282 -0.040193 0.033894 -0.051836 30.548800 -40.985400 0.000008 0.000006 8.865810 8.872510 -71.600500 -11.754300 -0.000006 -0.000006 -0.466122 -0.577466 -18.771900
0.000000 0.000000 0.000000 0.000000 0.000000 -0.000000 -5.071330 90.822200 2.189250 88.438500 2.468200 3.891670 15.735700 0.000005 -0.000001 83.052300 86.551800 -86.293600 8.984550 -0.406207 -0.000000 -0.928578 -0.588347 -6.484540 16.377300 -0.000001 -0.000001 3.918550 -3.722570 -1.158480 6.456720 -0.000001 -0.000000 -1.888380 -2.940570 -3.431340 12.994200 -0.242716 4.980390 -91.222500 3.128910 -68.646300 5.348090 -0.000007 -0.000001 -64.339400 24.619100 -3.448520 24.328600 0.000019 0.000005 8.918750 14.253300 -32.512900 22.291600 -0.000001 0.000005 8.536700 5.251350 1.395940 12.994500 -0.242716 -4.980390 91.153900 -5.153350 -77.364000 -5.348130 -0.000001 -0.000004 -19.096800 -47.595400 -33.820800 -24.328900 0.000322 -0.000009 -8.600380 -12.306900 -35.360300 -22.291500 -0.000108 -0.000004 20.909900 5.540470 -8.240190 -2.192480 -6.469440 -0.000000 -171.465000 -10.182600 -4.511380 39.081100 -0.000007 -0.000012 -0.179956 0.323671 29.073600 40.985400 -0.000006 -0.000013 -2.320890 8.952160 -70.260700 11.754300 -0.000000 0.000003 -0.000025 -0.000304 -16.589500 -2.192510 6.469440 -0.000001 -179.515000 22.444500 176.885000 -39.081100 -0.002282 -0.040193 0.029392 -0.046791 29.141000 -40.985400 0.000008 0.000006 9.186010 9.033280 -72.409600 -11.754300 -0.000006 -0.000006 -0.002580 -0.035751 -18.026900
0.000000 0.000000 0.000000 0.000000 0.000000 -0.000000 -5.445250 90.834700 2.053350 88.701200 4.730270 3.347430 15.735700 0.000005 -0.000001 82.964300 86.469400 -86.393200 8.984550 -0.406207 -0.000000 -0.767048 -0.609650 -6.858740 16.377300 -0.000001 -0.000001 3.347830 -4.932520 0.748593 6.456720 -0.000001 -0.000000 -2.440650 -3.032870 -6.090830 12.994200 -0.242716 4.980390 -91.680900 4.283150 -68.549300 5.348090 -0.000007 -0.000001 -60.880800 23.686300 -4.260490 24.328600 0.000019 0.000005 10.443700 16.869600 -32.423100 22.291600 -0.000001 0.000005 11.002500 5.222330 2.151940 12.994500 -0.242716 -4.980390 92.588300 -9.193320 -74.203300 -5.348130 -0.000001 -0.000004 -6.387610 -57.477000 -30.338500 -24.328900 0.000322 -0.000009 -7.561300 -7.981990 -43.707600 -22.291500 -0.000108 -0.000004 27.141400 5.589300 -10.724200 -2.192480 -6.469440 -0.000000 -171.590000 -9.343270 -5.590450 39.081100 -0.000007 -0.000012 -0.170172 0.307977 28.923000 40.985400 -0.000006 -0.000013 -2.275020 10.276600 -69.758300 11.754300 -0.000000 0.000003 -0.000023 -0.000290 -16.588900 -2.192510 6.469440 -0.000001 -179.065000 23.191800 176.577000 -39.081100 -0.002282 -0.040193 0.030538 -0.050067 28.542900 -40.985400 0.000008 0.000006 9.192440 7.328560 -72.638500 -11.754300 -0.000006 -0.000006 -0.002336 -0.032843 -17.908600
